<svg width="22" height="20" viewBox="0 0 22 20" fill="none" xmlns="http://www.w3.org/2000/svg">
<path d="M11 20C9.81811 20 8.64779 19.7672 7.55586 19.3149C6.46393 18.8626 5.47178 18.1997 4.63605 17.364C3.80032 16.5282 3.13739 15.5361 2.68509 14.4442C2.2328 13.3522 2.00001 12.1819 2.00001 11C2.00001 9.81811 2.2328 8.64779 2.68509 7.55586C3.13739 6.46393 3.80032 5.47178 4.63605 4.63605C5.47178 3.80032 6.46393 3.13739 7.55586 2.68509C8.64779 2.2328 9.81811 2.00001 11 2.00001C13.387 2.00001 15.6761 2.94822 17.364 4.63605C19.0518 6.32388 20 8.61306 20 11C20 13.387 19.0518 15.6761 17.364 17.364C15.6761 19.0518 13.387 20 11 20ZM11 18C11.9193 18 12.8295 17.819 13.6788 17.4672C14.5281 17.1154 15.2997 16.5998 15.9498 15.9498C16.5998 15.2997 17.1154 14.5281 17.4672 13.6788C17.819 12.8295 18 11.9193 18 11C18 10.0808 17.819 9.1705 17.4672 8.32123C17.1154 7.47195 16.5998 6.70027 15.9498 6.05026C15.2997 5.40025 14.5281 4.88464 13.6788 4.53285C12.8295 4.18107 11.9193 4.00001 11 4.00001C9.14349 4.00001 7.36302 4.73751 6.05026 6.05026C4.73751 7.36302 4.00001 9.14349 4.00001 11C4.00001 12.8565 4.73751 14.637 6.05026 15.9498C7.36302 17.2625 9.14349 18 11 18ZM12 11H15V13H10V6.00001H12V11ZM0.747009 4.28201L4.28201 0.747009L5.69701 2.16101L2.16001 5.69701L0.747009 4.28201ZM17.717 0.747009L21.253 4.28201L19.839 5.69701L16.303 2.16101L17.718 0.747009H17.717Z" fill="white"/>
</svg>
